P3
10 12
255
255 252 173  255 252 173  255 252 173  15 56 15  15 56 15  15 56 15  255 252 173  255 252 173  255 252 173  255 252 173  
255 252 173  255 252 173  15 56 15  15 56 15  15 56 15  15 56 15  15 56 15  15 56 15  15 56 15  255 252 173  
255 252 173  15 56 15  15 56 15  15 56 15  139 172 15  139 172 15  15 56 15  139 172 15  255 252 173  255 252 173  
15 56 15  15 56 15  139 172 15  15 56 15  15 56 15  139 172 15  139 172 15  139 172 15  139 172 15  255 252 173  
15 56 15  15 56 15  139 172 15  139 172 15  139 172 15  139 172 15  15 56 15  15 56 15  139 172 15  255 252 173  
255 252 173  255 252 173  139 172 15  139 172 15  139 172 15  139 172 15  139 172 15  139 172 15  255 252 173  255 252 173  
255 252 173  15 56 15  15 56 15  48 98 48  15 56 15  15 56 15  48 98 48  255 252 173  255 252 173  255 252 173  
15 56 15  15 56 15  15 56 15  48 98 48  15 56 15  15 56 15  48 98 48  15 56 15  15 56 15  255 252 173  
139 172 15  139 172 15  15 56 15  255 252 173  48 98 48  48 98 48  255 252 173  15 56 15  15 56 15  139 172 15  
139 172 15  139 172 15  48 98 48  48 98 48  48 98 48  48 98 48  48 98 48  48 98 48  139 172 15  139 172 15  
255 252 173  255 252 173  15 56 15  15 56 15  255 252 173  255 252 173  15 56 15  15 56 15  255 252 173  255 252 173  
255 252 173  15 56 15  15 56 15  15 56 15  255 252 173  255 252 173  15 56 15  15 56 15  15 56 15  255 252 173  
