P3
8 8
255
0 0 0  200 200 200  0 0 0  0 0 0  0 0 0  0 0 0  200 200 200  0 0 0  
0 0 0  0 0 0  200 200 200  200 200 200  200 200 200  200 200 200  0 0 0  0 0 0  
0 0 0  200 200 200  0 0 0  200 200 200  200 200 200  0 0 0  200 200 200  0 0 0  
0 0 0  200 200 200  200 200 200  200 200 200  200 200 200  200 200 200  200 200 200  0 0 0  
0 0 0  200 200 200  0 0 0  0 0 0  0 0 0  0 0 0  200 200 200  0 0 0  
0 0 0  200 200 200  200 200 200  200 200 200  200 200 200  200 200 200  200 200 200  0 0 0  
0 0 0  0 0 0  200 200 200  0 0 0  0 0 0  200 200 200  0 0 0  0 0 0  
0 0 0  200 200 200  0 0 0  0 0 0  0 0 0  0 0 0  200 200 200  0 0 0  
