P3
8 8
255
0 255 0  0 255 0  0 255 0  0 255 0  0 255 0  0 255 0  0 255 0  0 255 0  
255 255 0  255 0 0  255 0 0  255 0 0  255 0 0  255 0 0  255 0 0  255 255 0
255 255 0  255 0 0  255 0 0  255 0 0  255 0 0  255 0 0  255 0 0  255 255 0
255 255 0  70 0 0  70 0 0  255 0 0  255 0 0  70 0 0  70 0 0  255 255 0
255 255 0  255 255 0  255 255 0  255 0 0  255 0 0  255 255 0  255 255 0  255 255 0  
255 255 0  255 255 0  255 255 0  255 0 0  255 0 0  255 255 0  255 255 0  255 255 0  
0 255 0  0 255 0  0 255 0  255 0 0  255 0 0  0 255 0  0 255 0  0 255 0  
0 255 0  0 255 0  0 255 0  70 0 0  70 0 0  0 255 0  0 255 0  0 255 0  
